Patient4_TMGait_0pt8_01_right_26_EMG.mot
version=1
nRows=13
nColumns=33
inDegrees=no
endheader
time	1LAddLong	2LGlutMax	3LGlutMed	4LIliopsoas	5LSemiMemb	6LBicFemLong	7LRecFem	8LVastMed	9LVastLat	10LGasMed	11LTibAnt	12lTibPost	13LPeroneusLong	14LSol	15LExtDigLong	16LFlexDigLong	17RAddLong	18RGlutMax	19RGlutMed	20RIliopsoas	21RSemiMemb	22RBicFemLong	23RRecFem	24RVastMed	25RVastLat	26RGasMed	27RTibAnt	28RTibPost	29RPeroneusLong	30RSol	31RExtDigLong	32RFlexDigLong
29.455	-0.028076	-0.77682	0.25665	-0.027466	-0.000763	-0.018616	0.17548	-0.011444	0.003204	-0.16037	-0.000763	-0.086212	0.057678	-0.64316	0.033264	0.051117	0.12741	-0.065613	0.43884	-0.12451	-0.13962	-0.39963	0.30945	-0.12528	-0.2034	-0.015717	-0.17761	-0.0383	4.3958	0.32623	-0.008392	0.00473
29.456	-0.027771	-0.784	0.23148	-0.020447	0.004425	-0.0177	0.23361	0.000153	0.00351	-0.11398	0.005798	-0.11383	-0.1915	-0.71045	0.044861	0.054626	0.13992	-0.049133	0.2948	-0.048065	-0.062256	0.19134	0.39108	-0.17517	-0.53711	-0.085144	-0.12466	-0.036011	1.3887	0.00824	-0.004578	0.010376
29.457	-0.030212	-0.80765	0.18494	0.007477	0.003204	0.011139	0.31235	-0.008545	-0.045624	0.002899	0.00412	-0.075378	-0.27588	-0.51987	0.019989	0.05127	0.10864	-0.05188	0.066223	-0.083923	-0.063782	0.24551	0.44037	-0.10803	-0.57358	-0.14297	0.29816	-0.032349	-2.2417	0.063019	-0.002747	0.010834
29.458	-0.024872	-0.77331	0.14008	-0.006561	0.001984	0.004883	0.42893	-0.007172	-0.046692	0.00473	-0.018463	-0.10681	-0.11398	0.4187	0.043182	0.000153	0.040283	0.012665	-0.038452	0.061035	0.17517	0.27725	0.44708	0.016174	-0.62958	-0.16357	0.25238	-0.038757	-3.0186	-0.016174	-0.001526	0.009003
29.459	-0.018463	-0.80765	0.11185	0.024872	-0.001678	0.003204	0.54703	-0.003357	-0.055389	-0.082092	-0.015564	-0.09613	-0.062408	0.84656	0.018768	-0.017395	-0.063782	0.032043	-0.2327	0.016785	0.11093	0.10727	0.45731	0.23209	-0.47546	-0.13184	-0.16388	-0.03891	-0.16312	-0.20294	0.003815	0.016479
29.46	-0.018921	-0.83954	0.069733	0.032654	0.004883	-0.016785	0.62546	-0.006104	-0.076141	-0.19012	-0.025787	-0.07843	-0.12863	0.56015	-0.003815	-0.019073	-0.028687	-0.039673	-0.3804	-0.11765	0.14099	0.10422	0.50751	0.26199	-0.12512	-0.084991	-0.24948	-0.029297	-0.089264	-0.23361	0.00351	0.005646
29.461	0.003052	-0.8342	0.056	0.009766	0.008392	-0.013885	0.56854	-0.005493	-0.061951	-0.18784	-0.019836	-0.067596	-0.097961	0.37506	-0.028687	-0.010223	-0.028229	-0.20538	-0.88638	-0.067596	0.53268	-0.42877	0.5159	0.20004	0.010681	0.15686	-0.21637	-0.058289	0.8551	-0.21423	0.004883	0.002289
29.462	-0.014343	-0.75714	0.000763	-0.009766	0.001984	-0.013733	0.52872	-0.003662	-0.080261	0.074615	-0.027924	-0.063019	-0.074615	0.23178	-0.059814	-0.002441	-0.092163	-0.13184	-0.74905	0.044098	0.52536	-0.47958	0.34561	0.21774	0.063477	0.18234	-0.23361	-0.050812	1.4877	-0.19272	0.000153	0.000916
29.463	0.019379	-0.74036	-0.054169	0.032501	-0.000916	-0.002899	0.41824	0.006256	-0.081329	-0.061188	-0.009003	-0.051575	-0.096588	0.075226	-0.055847	-0.022736	-0.12726	-0.0383	-0.48355	0.065613	0.19974	-0.5658	0.24826	0.19028	0.050354	0.040894	-0.17914	-0.078735	-0.36468	-0.37231	-0.00061	0.000305
29.464	0.032806	-0.70206	-0.094299	0.048065	0.005493	-0.018005	0.31693	0.005951	-0.086975	-0.15961	-0.031891	-0.057983	-0.12894	0.22354	-0.004578	-0.010681	-0.09903	0.036316	-0.52902	0.048065	0.20355	-1.0309	0.34119	0.19653	-0.060883	-0.00061	-0.10712	-0.034485	-1.7114	-0.53314	-0.000763	-0.007629
29.465	0.00473	-0.6369	-0.17303	0.014191	0.006409	-0.010223	0.1886	0.009918	-0.10254	-0.15961	-0.002289	-0.033417	-0.17639	0.31006	0.054321	-0.019226	-0.08194	0.072479	-0.74295	0.17181	0.27268	-0.89905	0.41016	0.14725	-0.12497	-0.046082	-0.06485	-0.040894	-1.7061	-0.4129	0.003052	-0.007935
29.466	0.014648	-0.63232	-0.2536	-0.012512	0.004578	-0.018158	-0.084381	0.015717	-0.095215	-0.11383	-0.003815	-0.034637	-0.22446	0.21759	0.058289	0.006714	-0.026703	0.093536	-0.91278	0.052948	0.22492	-0.45715	0.44098	0.051422	-0.10651	-0.018158	-0.052032	-0.056152	0.64407	-0.003967	0.001526	-0.00061
29.467	0.007629	-0.66025	-0.31006	0.003357	0.008392	-0.026703	-0.34439	0.024567	-0.0914	-0.09201	-0.049896	-0.033722	-0.13901	-0.004883	0.24628	-0.014191	-0.014496	-0.01236	-1.2874	0.020905	0.056152	0.062408	0.49789	0.006714	-0.014343	-0.058594	-0.010681	-0.053406	3.0838	-0.012665	0.000763	-0.002136
